<svg width="31" height="31" viewBox="0 0 31 31" fill="none" xmlns="http://www.w3.org/2000/svg">
<path d="M30.9985 8.01537H29.4685V9.53537H30.9985V8.01537Z" fill="#000001"/>
<path d="M29.4685 9.53537H27.9485V11.0654H29.4685V9.53537Z" fill="#000001"/>
<path d="M29.4685 6.49538H27.9485V8.01538H29.4685V6.49538Z" fill="#000001"/>
<path d="M27.9485 8.01537H26.4285V9.53537H27.9485V8.01537Z" fill="#000001"/>
<path d="M26.4285 27.8254V26.2954H27.9485V24.7754H26.4285V23.2554H24.8985V24.7754H23.3785V26.2954H24.8985V27.8254H26.4285Z" fill="#000001"/>
<path d="M26.4285 12.5854H24.8985V15.6354H26.4285V12.5854Z" fill="#000001"/>
<path d="M24.8985 15.6354H23.3785V17.1554H24.8985V15.6354Z" fill="#000001"/>
<path d="M24.8985 3.44537H23.3785V4.96537H24.8985V3.44537Z" fill="#000001"/>
<path d="M23.3785 17.1554H21.8485V18.6854H23.3785V17.1554Z" fill="#000001"/>
<path d="M23.3785 4.96536H21.8485V6.49536H23.3785V4.96536Z" fill="#000001"/>
<path d="M21.8485 18.6854H20.3285V20.2054H21.8485V18.6854Z" fill="#000001"/>
<path d="M21.8485 6.49538H20.3285V8.01538H21.8485V6.49538Z" fill="#000001"/>
<path d="M20.3285 20.2054H18.8085V21.7254H20.3285V20.2054Z" fill="#000001"/>
<path d="M20.3285 8.01537H18.8085V9.53537H20.3285V8.01537Z" fill="#000001"/>
<path d="M18.8085 29.3454H17.2785V30.8754H18.8085V29.3454Z" fill="#000001"/>
<path d="M18.8085 21.7254H17.2785V23.2554H18.8085V21.7254Z" fill="#000001"/>
<path d="M17.2785 9.53537V11.0654H15.7585V12.5854H24.8985V11.0654H18.8085V9.53537H17.2785Z" fill="#000001"/>
<path d="M17.2785 23.2554H15.7585V24.7754H17.2785V23.2554Z" fill="#000001"/>
<path d="M24.8985 1.91537V3.44537H26.4285V0.39537H14.2385V1.91537H24.8985Z" fill="#000001"/>
<path d="M15.7585 24.7754H14.2385V26.2954H15.7585V24.7754Z" fill="#000001"/>
<path d="M14.2385 26.2954H12.7085V27.8254H14.2385V26.2954Z" fill="#000001"/>
<path d="M14.2385 1.91537H12.7085V3.44537H14.2385V1.91537Z" fill="#000001"/>
<path d="M12.7085 27.8254H11.1885V29.3454H12.7085V27.8254Z" fill="#000001"/>
<path d="M12.7085 15.6354H3.56854V17.1554H11.1885V20.2054H12.7085V15.6354Z" fill="#000001"/>
<path d="M12.7085 3.44537H11.1885V4.96537H12.7085V3.44537Z" fill="#000001"/>
<path d="M11.1885 29.3454H9.65854V30.8754H11.1885V29.3454Z" fill="#000001"/>
<path d="M11.1885 20.2054H9.65854V24.7754H11.1885V20.2054Z" fill="#000001"/>
<path d="M11.1885 4.96536H9.65854V6.49536H11.1885V4.96536Z" fill="#000001"/>
<path d="M9.65855 24.7754H8.13855V29.3454H9.65855V24.7754Z" fill="#000001"/>
<path d="M9.65855 6.49538H8.13855V8.01538H9.65855V6.49538Z" fill="#000001"/>
<path d="M8.13855 8.01537H6.61855V9.53537H8.13855V8.01537Z" fill="#000001"/>
<path d="M6.61855 9.53537H5.08854V11.0654H6.61855V9.53537Z" fill="#000001"/>
<path d="M5.08854 21.7254H3.56854V23.2554H5.08854V21.7254Z" fill="#000001"/>
<path d="M5.08854 11.0654H3.56854V12.5854H5.08854V11.0654Z" fill="#000001"/>
<path d="M3.56855 0.39537V1.91537H2.04855V3.44537H3.56855V4.96537H5.08855V3.44537H6.61855V1.91537H5.08855V0.39537H3.56855Z" fill="#000001"/>
<path d="M3.56855 23.2554H2.04855V24.7754H3.56855V23.2554Z" fill="#000001"/>
<path d="M3.56855 20.2054H2.04855V21.7254H3.56855V20.2054Z" fill="#000001"/>
<path d="M3.56855 12.5854H2.04855V15.6354H3.56855V12.5854Z" fill="#000001"/>
<path d="M2.04855 21.7254H0.518545V23.2554H2.04855V21.7254Z" fill="#000001"/>
</svg>
