<svg width="20" height="20" viewBox="0 0 20 20" fill="none" xmlns="http://www.w3.org/2000/svg">
<g clip-path="url(#clip0_1616_21296)">
<path d="M16.1906 5.23633V15.7113H17.1469V5.23633H19.0469V4.28633H18.0969V3.33008H14.2844V1.42383H13.3344V3.33008H6.66563V1.42383H5.71563V3.33008H1.90938V4.28633H0.953125V5.23633H2.85937V15.7113H3.80937V5.23633H16.1906Z" fill="#000001"/>
<path d="M16.1922 15.7119H15.2422V18.5682H16.1922V15.7119Z" fill="#000001"/>
<path d="M15.2406 18.5684H4.76562V19.5246H15.2406V18.5684Z" fill="#000001"/>
<path d="M14.284 7.14355H13.334V14.7623H14.284V7.14355Z" fill="#000001"/>
<path d="M13.3348 14.7627H12.3848V16.6627H13.3348V14.7627Z" fill="#000001"/>
<path d="M10.4773 7.14355H9.52734V16.6623H10.4773V7.14355Z" fill="#000001"/>
<path d="M13.3328 0.474609H6.66406V1.42461H13.3328V0.474609Z" fill="#000001"/>
<path d="M7.62031 14.7627H6.66406V16.6627H7.62031V14.7627Z" fill="#000001"/>
<path d="M6.66484 7.14355H5.71484V14.7623H6.66484V7.14355Z" fill="#000001"/>
<path d="M4.76484 15.7119H3.80859V18.5682H4.76484V15.7119Z" fill="#000001"/>
</g>
<defs>
<clipPath id="clip0_1616_21296">
<rect width="20" height="20" fill="white"/>
</clipPath>
</defs>
</svg>
