<svg width="24" height="24" viewBox="0 0 24 24" fill="none" xmlns="http://www.w3.org/2000/svg">
<g clip-path="url(#clip0_1616_21105)">
<path d="M23.9994 1.14062H22.8594V4.56813H23.9994V1.14062Z" fill="#000001"/>
<path d="M22.8604 4.56836H21.7129V6.85586H22.8604V4.56836Z" fill="#000001"/>
<path d="M22.8598 0.000976562H20.5723V1.14098H22.8598V0.000976562Z" fill="#000001"/>
<path d="M21.7123 6.85645H20.5723V9.14394H21.7123V6.85645Z" fill="#000001"/>
<path d="M20.5733 9.14355H19.4258V11.4311H20.5733V9.14355Z" fill="#000001"/>
<path d="M20.5733 1.14062H19.4258V3.42813H20.5733V1.14062Z" fill="#000001"/>
<path d="M19.4252 11.4307H18.2852V13.7107H19.4252V11.4307Z" fill="#000001"/>
<path d="M19.4252 3.42871H18.2852V5.71621H19.4252V3.42871Z" fill="#000001"/>
<path d="M18.2845 17.1455H17.1445V20.573H18.2845V17.1455Z" fill="#000001"/>
<path d="M18.2845 13.7109H17.1445V15.9984H18.2845V13.7109Z" fill="#000001"/>
<path d="M18.2845 5.71582H17.1445V8.00332H18.2845V5.71582Z" fill="#000001"/>
<path d="M17.1436 8.00391H15.9961V10.2839H17.1436V8.00391Z" fill="#000001"/>
<path d="M15.9981 19.4255H14.8581V20.573H13.7181V19.4255H12.5706V18.2855H11.4306V19.4255H10.2831V17.1455H9.14312V20.573H8.00312V21.713H6.85562V22.853H1.14062V24.0005H13.7181V22.853H15.9981V21.713H17.1456V20.573H15.9981V19.4255Z" fill="#000001"/>
<path d="M17.1449 15.998H14.8574V17.1455H17.1449V15.998Z" fill="#000001"/>
<path d="M15.9974 10.2832H14.8574V12.5707H15.9974V10.2832Z" fill="#000001"/>
<path d="M14.8572 15.9988V12.5713H13.7172V14.8588H11.4297V15.9988H14.8572Z" fill="#000001"/>
<path d="M11.4287 15.998H10.2812V17.1455H11.4287V15.998Z" fill="#000001"/>
<path d="M11.4287 9.14355H10.2812V10.2836H11.4287V9.14355Z" fill="#000001"/>
<path d="M10.2826 10.2832H9.14258V11.4307H10.2826V10.2832Z" fill="#000001"/>
<path d="M10.2831 8.00391H1.14062V9.14391H10.2831V8.00391Z" fill="#000001"/>
<path d="M8.00297 17.1455H6.85547V18.2855H8.00297V17.1455Z" fill="#000001"/>
<path d="M9.14234 11.4307H5.71484V12.5707H9.14234V11.4307Z" fill="#000001"/>
<path d="M6.85484 18.2861H5.71484V19.4261H6.85484V18.2861Z" fill="#000001"/>
<path d="M6.85523 15.998H3.42773V17.1455H6.85523V15.998Z" fill="#000001"/>
<path d="M5.71523 12.5713H3.42773V13.7113H5.71523V12.5713Z" fill="#000001"/>
<path d="M5.71461 19.4258H2.28711V20.5733H5.71461V19.4258Z" fill="#000001"/>
<path d="M3.42711 13.7109H2.28711V15.9984H3.42711V13.7109Z" fill="#000001"/>
<path d="M2.28813 20.5732H1.14062V21.7132H2.28813V20.5732Z" fill="#000001"/>
<path d="M1.14 21.7139H0V22.8539H1.14V21.7139Z" fill="#000001"/>
</g>
<defs>
<clipPath id="clip0_1616_21105">
<rect width="24" height="24" fill="white"/>
</clipPath>
</defs>
</svg>
