<svg width="31" height="33" viewBox="0 0 31 33" fill="none" xmlns="http://www.w3.org/2000/svg">
<path d="M1.88021 11.3054H29.3102V31.1154H30.8302V6.73538H29.3102V9.77538H1.88021V6.73538H0.360214V31.1154H1.88021V11.3054Z" fill="#000001"/>
<path d="M29.3102 5.20538H27.7902V6.73538H29.3102V5.20538Z" fill="#000001"/>
<path d="M29.3102 31.1154H1.88021V32.6354H29.3102V31.1154Z" fill="#000001"/>
<path d="M24.7402 18.9254H21.6902V20.4454H20.1702V18.9254H17.1202V20.4454H15.6002V23.4954H17.1202V25.0154H18.6402V26.5354H20.1702V28.0654H21.6902V26.5354H23.2102V25.0154H24.7402V23.4954H26.2602V20.4454H24.7402V18.9254Z" fill="#000001"/>
<path d="M24.7402 14.3454H23.2102V15.8754H24.7402V14.3454Z" fill="#000001"/>
<path d="M18.6402 14.3454H17.1202V15.8754H18.6402V14.3454Z" fill="#000001"/>
<path d="M12.5502 26.5354H11.0202V28.0654H12.5502V26.5354Z" fill="#000001"/>
<path d="M12.5502 20.4454H11.0202V21.9654H12.5502V20.4454Z" fill="#000001"/>
<path d="M12.5502 14.3454H11.0202V15.8754H12.5502V14.3454Z" fill="#000001"/>
<path d="M6.45021 26.5354H4.93021V28.0654H6.45021V26.5354Z" fill="#000001"/>
<path d="M6.45021 20.4454H4.93021V21.9654H6.45021V20.4454Z" fill="#000001"/>
<path d="M6.45021 14.3454H4.93021V15.8754H6.45021V14.3454Z" fill="#000001"/>
<path d="M7.98022 5.20538V6.73538H9.50022V5.20538H21.6902V6.73538H23.2102V5.20538H27.7902V3.68538H23.2102V0.635376H21.6902V3.68538H9.50022V0.635376H7.98022V3.68538H3.41022V5.20538H7.98022Z" fill="#000001"/>
<path d="M3.41021 5.20538H1.88021V6.73538H3.41021V5.20538Z" fill="#000001"/>
</svg>
