<svg width="48" height="48" viewBox="0 0 48 48" fill="none" xmlns="http://www.w3.org/2000/svg">
<rect width="48" height="48" fill="#FCE184"/>
<path d="M21.2308 13.8462H23.0769V12H24.9231V13.8462H26.7692V15.6923H21.2308V13.8462Z" fill="#0F0E0C"/>
<path d="M19.3846 17.5385V15.6923H15.6923V19.3846H17.5385V17.5385H19.3846Z" fill="#0F0E0C"/>
<path d="M17.5385 30.4615V28.6154H15.6923V32.3077H19.3846V30.4615H17.5385Z" fill="#0F0E0C"/>
<path d="M26.7692 32.3077H21.2308V34.1538H23.0769V36H24.9231V34.1538H26.7692V32.3077Z" fill="#0F0E0C"/>
<path d="M26.7692 17.5385V19.3846H28.6154V21.2308H30.4615V26.7692H28.6154V28.6154H26.7692V30.4615H21.2308V28.6154H19.3846V26.7692H17.5385V21.2308H19.3846V19.3846H21.2308V17.5385H26.7692Z" fill="#0F0E0C"/>
<path d="M28.6154 30.4615V32.3077H32.3077V28.6154H30.4615V30.4615H28.6154Z" fill="#0F0E0C"/>
<path d="M30.4615 19.3846V17.5385H28.6154V15.6923H32.3077V19.3846H30.4615Z" fill="#0F0E0C"/>
<path d="M32.3077 26.7692H34.1538V24.9231H36V23.0769H34.1538V21.2308H32.3077V26.7692Z" fill="#0F0E0C"/>
<path d="M15.6923 26.7692V21.2308H13.8462V23.0769H12V24.9231H13.8462V26.7692H15.6923Z" fill="#0F0E0C"/>
</svg>
