<svg width="33" height="33" viewBox="0 0 33 33" fill="none" xmlns="http://www.w3.org/2000/svg">
<path d="M31.0752 9.77538H29.5452V6.72538H28.0252V5.20538H26.4952V3.68538H23.4552V2.15538H20.4052V0.635376H12.7852V2.15538H9.73522V3.68538H6.68521V5.20538H5.16522V6.72538H3.64521V9.77538H2.11521V12.8254H0.595215V20.4454H2.11521V23.4954H3.64521V26.5354H5.16522V28.0654H6.68521V29.5854H9.73522V31.1154H12.7852V32.6354H20.4052V31.1154H23.4552V29.5854H26.4952V28.0654H28.0252V26.5354H29.5452V23.4954H31.0752V20.4454H32.5952V12.8254H31.0752V9.77538ZM12.7852 6.72538H14.3052V5.20538H18.8852V6.72538H20.4052V11.3054H18.8852V12.8254H14.3052V11.3054H12.7852V6.72538ZM23.4552 26.5354H21.9252V28.0654H14.3052V26.5354H12.7852V15.8754H14.3052V14.3454H18.8852V15.8754H20.4052V23.4954H21.9252V25.0154H23.4552V26.5354Z" fill="#000001"/>
</svg>
