<svg width="32" height="32" viewBox="0 0 32 32" fill="none" xmlns="http://www.w3.org/2000/svg">
<path d="M28.1902 4.56995H26.6702V24.3799H28.1902V4.56995Z" fill="#000001"/>
<path d="M25.1401 27.43H9.91011V25.91H8.38011V27.43H6.86011V32H28.1901V27.43H26.6701V24.38H25.1401V27.43ZM25.1401 30.48H22.1001V28.95H25.1401V30.48Z" fill="#000001"/>
<path d="M26.6701 3.05005H23.6201V4.57005H26.6701V3.05005Z" fill="#000001"/>
<path d="M22.1 18.29H19.05V19.81H22.1V18.29Z" fill="#000001"/>
<path d="M16.0002 19.8101H11.4302V21.3301H16.0002V19.8101Z" fill="#000001"/>
<path d="M12.9502 13.71H11.4302V15.24H14.4802V10.67H17.5302V15.24H14.4802V16.76H16.0002V19.81H17.5302V18.29H19.0502V10.67H22.1002V18.29H23.6202V4.57002H22.1002V9.14002H14.4802V1.52002H12.9502V13.71Z" fill="#000001"/>
<path d="M12.9502 0H9.91016V1.52H12.9502V0Z" fill="#000001"/>
<path d="M11.4302 18.29H9.91016V19.81H11.4302V18.29Z" fill="#000001"/>
<path d="M11.4301 13.71V12.19H9.91011V1.52002H8.38011V12.19H6.86011V13.71H11.4301Z" fill="#000001"/>
<path d="M8.38011 24.38H6.86011V25.91H8.38011V24.38Z" fill="#000001"/>
<path d="M6.86009 21.33H5.34009V24.38H6.86009V21.33Z" fill="#000001"/>
<path d="M6.86009 13.71H5.34009V15.24H6.86009V13.71Z" fill="#000001"/>
<path d="M5.34006 15.24H3.81006V21.33H5.34006V15.24Z" fill="#000001"/>
</svg>
