<svg width="26" height="32" viewBox="0 0 26 32" fill="none" xmlns="http://www.w3.org/2000/svg">
<path d="M25.1902 4.56995H23.6702V24.3799H25.1902V4.56995Z" fill="#000001"/>
<path d="M22.1401 27.43H6.91011V25.91H5.38011V27.43H3.86011V32H25.1901V27.43H23.6701V24.38H22.1401V27.43ZM22.1401 30.48H19.1001V28.95H22.1401V30.48Z" fill="#000001"/>
<path d="M23.6701 3.05005H20.6201V4.57005H23.6701V3.05005Z" fill="#000001"/>
<path d="M19.1 18.29H16.05V19.81H19.1V18.29Z" fill="#000001"/>
<path d="M13.0002 19.8101H8.43018V21.3301H13.0002V19.8101Z" fill="#000001"/>
<path d="M9.95018 13.71H8.43018V15.24H11.4802V10.67H14.5302V15.24H11.4802V16.76H13.0002V19.81H14.5302V18.29H16.0502V10.67H19.1002V18.29H20.6202V4.57002H19.1002V9.14002H11.4802V1.52002H9.95018V13.71Z" fill="#000001"/>
<path d="M9.95016 0H6.91016V1.52H9.95016V0Z" fill="#000001"/>
<path d="M8.43016 18.29H6.91016V19.81H8.43016V18.29Z" fill="#000001"/>
<path d="M8.43011 13.71V12.19H6.91011V1.52002H5.38011V12.19H3.86011V13.71H8.43011Z" fill="#000001"/>
<path d="M5.38011 24.38H3.86011V25.91H5.38011V24.38Z" fill="#000001"/>
<path d="M3.86009 21.33H2.34009V24.38H3.86009V21.33Z" fill="#000001"/>
<path d="M3.86009 13.71H2.34009V15.24H3.86009V13.71Z" fill="#000001"/>
<path d="M2.34006 15.24H0.810059V21.33H2.34006V15.24Z" fill="#000001"/>
</svg>
