<svg width="500" height="500" viewBox="0 0 500 500" fill="none" xmlns="http://www.w3.org/2000/svg">
<path d="M192.308 38.4615H230.769V0H269.231V38.4615H307.692V76.9231H192.308V38.4615Z" fill="#FCE184"/>
<path d="M153.846 115.385V76.9231H76.9231V153.846H115.385V115.385H153.846Z" fill="#FCE184"/>
<path d="M115.385 384.615V346.154H76.9231V423.077H153.846V384.615H115.385Z" fill="#FCE184"/>
<path d="M307.692 423.077H192.308V461.538H230.769V500H269.231V461.538H307.692V423.077Z" fill="#FCE184"/>
<path d="M307.692 115.385V153.846H346.154V192.308H384.615V307.692H346.154V346.154H307.692V384.615H192.308V346.154H153.846V307.692H115.385V192.308H153.846V153.846H192.308V115.385H307.692Z" fill="#FCE184"/>
<path d="M346.154 384.615V423.077H423.077V346.154H384.615V384.615H346.154Z" fill="#FCE184"/>
<path d="M384.615 153.846V115.385H346.154V76.9231H423.077V153.846H384.615Z" fill="#FCE184"/>
<path d="M423.077 307.692H461.538V269.231H500V230.769H461.538V192.308H423.077V307.692Z" fill="#FCE184"/>
<path d="M76.9231 307.692V192.308H38.4615V230.769H0V269.231H38.4615V307.692H76.9231Z" fill="#FCE184"/>
</svg>
