<svg width="33" height="33" viewBox="0 0 33 33" fill="none" xmlns="http://www.w3.org/2000/svg">
<path d="M30.8202 9.77525H29.2902V6.72525H27.7702V5.20525H26.2502V3.68525H23.2002V2.15525H20.1502V0.635254H12.5302V2.15525H9.48021V3.68525H6.44021V5.20525H4.91021V6.72525H3.39021V9.77525H1.86021V12.8253H0.34021V20.4453H1.86021V23.4953H3.39021V26.5353H4.91021V28.0653H6.44021V29.5853H9.48021V31.1153H12.5302V32.6353H20.1502V31.1153H23.2002V29.5853H26.2502V28.0653H27.7702V26.5353H29.2902V23.4953H30.8202V20.4453H32.3402V12.8253H30.8202V9.77525ZM26.2502 15.8753H24.7202V17.3953H23.2002V18.9253H21.6702V20.4453H20.1502V21.9653H18.6302V18.9253H12.5302V20.4453H11.0102V21.9653H12.5302V23.4953H14.0502V25.0153H9.48021V23.4953H7.96021V21.9653H6.44021V14.3453H7.96021V12.8253H9.48021V11.3053H18.6302V8.25525H20.1502V9.77525H21.6702V11.3053H23.2002V12.8253H24.7202V14.3453H26.2502V15.8753Z" fill="#000001"/>
</svg>
