<svg width="20" height="20" viewBox="0 0 20 20" fill="none" xmlns="http://www.w3.org/2000/svg">
<path d="M20.0012 1.90527H19.0449V19.049H20.0012V1.90527Z" fill="#000001"/>
<path d="M19.0437 0.949219H18.0938V1.90547H19.0437V0.949219Z" fill="#000001"/>
<path d="M17.143 10.4746H16.1867V19.0496H3.80547V10.4746H2.85547V19.0496H0.949219V19.9996H19.043V19.0496H17.143V10.4746Z" fill="#000001"/>
<path d="M11.4258 5.71152H15.2383V1.90527H11.4258V5.71152ZM12.382 2.85527H13.332V4.76152H12.382V2.85527Z" fill="#000001"/>
<path d="M14.2797 16.1875H5.71094V17.1438H14.2797V16.1875Z" fill="#000001"/>
<path d="M14.2797 13.3311H5.71094V14.2873H14.2797V13.3311Z" fill="#000001"/>
<path d="M16.1859 9.52344H3.80469V10.4734H16.1859V9.52344Z" fill="#000001"/>
<path d="M2.85625 5.71152H3.80625V0.949023H5.7125V5.71152H3.80625V6.66777H5.7125V7.61777H17.1437V0.949023H18.0938V-0.000976562H1.90625V0.949023H2.85625V5.71152ZM6.6625 0.949023H16.1875V6.66777H6.6625V0.949023Z" fill="#000001"/>
<path d="M1.90547 0.949219H0.949219V1.90547H1.90547V0.949219Z" fill="#000001"/>
<path d="M0.95 1.90527H0V19.049H0.95V1.90527Z" fill="#000001"/>
</svg>
