<svg width="20" height="20" viewBox="0 0 20 20" fill="none" xmlns="http://www.w3.org/2000/svg">
<g clip-path="url(#clip0_1616_21367)">
<path d="M-2.38419e-07 7.14355H3.8125V8.09355H-2.38419e-07V7.14355Z" fill="#000001"/>
<path d="M4.76837e-07 9.0498H1.90625V9.9998H4.76837e-07V9.0498Z" fill="#000001"/>
<path d="M14.2875 13.8123H9.525V14.7623H4.7625V12.8561H1.90625V10.9561H2.85625V11.9061H19.05V10.9561H20V12.8561H14.2875V13.8123Z" fill="#000001"/>
<path d="M2.85547 10H4.76172V10.9563H2.85547V10Z" fill="#000001"/>
<path d="M3.8125 5.2373H5.71875V6.19355H3.8125V5.2373Z" fill="#000001"/>
<path d="M4.76172 9.0498H6.66797V9.9998H4.76172V9.0498Z" fill="#000001"/>
<path d="M8.57539 8.09355H9.52539V9.0498H6.66914V8.09355H7.61914V7.14355H8.57539V8.09355Z" fill="#000001"/>
<path d="M7.61914 7.14355H6.66914V5.2373H9.52539V6.19355H7.61914V7.14355Z" fill="#000001"/>
<path d="M9.52539 6.19336H11.4316V7.14336H9.52539V6.19336Z" fill="#000001"/>
<path d="M9.52461 9.0498H12.3809V9.9998H9.52461V9.0498Z" fill="#000001"/>
<path d="M11.4316 7.14355H13.3379V8.09355H11.4316V7.14355Z" fill="#000001"/>
<path d="M13.3383 8.09375H15.2383V9.05H13.3383V8.09375Z" fill="#000001"/>
<path d="M15.2383 9.0498H17.1445V9.9998H15.2383V9.0498Z" fill="#000001"/>
<path d="M17.1445 10H19.0508V10.9563H17.1445V10Z" fill="#000001"/>
</g>
<defs>
<clipPath id="clip0_1616_21367">
<rect width="20" height="20" fill="white" transform="matrix(-1 0 0 1 20 0)"/>
</clipPath>
</defs>
</svg>
