<svg width="32" height="32" viewBox="0 0 32 32" fill="none" xmlns="http://www.w3.org/2000/svg">
<path d="M24.375 1.52002V3.05002H21.325V4.57002H24.375V19.81H22.8549V21.33H24.375V22.86H30.475V1.52002H24.375Z" fill="#000001"/>
<path d="M22.8549 21.33H19.8049V22.86H22.8549V21.33Z" fill="#000001"/>
<path d="M21.3249 1.52002H19.8049V3.05002H21.3249V1.52002Z" fill="#000001"/>
<path d="M19.8049 22.86H18.2849V24.38H19.8049V22.86Z" fill="#000001"/>
<path d="M18.2849 24.38H16.7549V30.48H18.2849V24.38Z" fill="#000001"/>
<path d="M16.7548 30.48H13.7148V32H16.7548V30.48Z" fill="#000001"/>
<path d="M15.2348 19.8101H13.7148V21.3301H15.2348V19.8101Z" fill="#000001"/>
<path d="M13.7148 28.95H12.1848V30.4799H13.7148V28.95Z" fill="#000001"/>
<path d="M13.7148 21.33H12.1848V22.86H13.7148V21.33Z" fill="#000001"/>
<path d="M13.7149 18.29H4.56494V19.81H13.7149V18.29Z" fill="#000001"/>
<path d="M12.1848 22.86H10.6648V28.95H12.1848V22.86Z" fill="#000001"/>
<path d="M19.805 0H6.09497V1.52H19.805V0Z" fill="#000001"/>
<path d="M10.6649 6.10005V4.57005H4.56492V3.05005H3.04492V6.10005H10.6649Z" fill="#000001"/>
<path d="M6.09494 1.52002H4.56494V3.05002H6.09494V1.52002Z" fill="#000001"/>
<path d="M4.56492 16.76H3.04492V18.29H4.56492V16.76Z" fill="#000001"/>
<path d="M9.1349 15.24V13.71H3.0449V10.67H9.1349V9.13998H3.0449V6.09998H1.5249V16.76H3.0449V15.24H9.1349Z" fill="#000001"/>
</svg>
