<svg width="40" height="41" viewBox="0 0 40 41" fill="none" xmlns="http://www.w3.org/2000/svg">
<g clip-path="url(#clip0_1615_20770)">
<path d="M35.2359 6.21191H33.3359V30.9744H35.2359V6.21191Z" fill="#0f0e0c"/>
<path d="M31.4242 34.7861H12.3867V32.8861H10.4742V34.7861H8.57422V40.4986H35.2367V34.7861H33.3367V30.9736H31.4242V34.7861ZM31.4242 38.5986H27.6242V36.6861H31.4242V38.5986Z" fill="#0f0e0c"/>
<path d="M33.3359 4.31152H29.5234V6.21152H33.3359V4.31152Z" fill="#0f0e0c"/>
<path d="M27.625 23.3613H23.8125V25.2613H27.625V23.3613Z" fill="#0f0e0c"/>
<path d="M19.9996 25.2607H14.2871V27.1607H19.9996V25.2607Z" fill="#0f0e0c"/>
<path d="M16.1871 17.6359H14.2871V19.5484H18.0996V13.8359H21.9121V19.5484H18.0996V21.4484H19.9996V25.2609H21.9121V23.3609H23.8121V13.8359H27.6246V23.3609H29.5246V6.21094H27.6246V11.9234H18.0996V2.39844H16.1871V17.6359Z" fill="#0f0e0c"/>
<path d="M16.1867 0.499023H12.3867V2.39902H16.1867V0.499023Z" fill="#0f0e0c"/>
<path d="M14.2867 23.3613H12.3867V25.2613H14.2867V23.3613Z" fill="#0f0e0c"/>
<path d="M14.2867 17.6359V15.7359H12.3867V2.39844H10.4742V15.7359H8.57422V17.6359H14.2867Z" fill="#0f0e0c"/>
<path d="M10.4742 30.9736H8.57422V32.8861H10.4742V30.9736Z" fill="#0f0e0c"/>
<path d="M8.57578 27.1611H6.67578V30.9736H8.57578V27.1611Z" fill="#0f0e0c"/>
<path d="M8.57578 17.6367H6.67578V19.5492H8.57578V17.6367Z" fill="#0f0e0c"/>
<path d="M6.67422 19.5498H4.76172V27.1623H6.67422V19.5498Z" fill="#0f0e0c"/>
</g>
<defs>
<clipPath id="clip0_1615_20770">
<rect width="40" height="40" fill="none" transform="translate(0 0.5)"/>
</clipPath>
</defs>
</svg>
