<svg width="40" height="41" viewBox="0 0 40 41" fill="#cccccc" xmlns="http://www.w3.org/2000/svg">
<g clip-path="url(#clip0_1615_20787)">
<path d="M30.4687 29.0625V27.1625H28.5687V25.2625H30.4687V6.2125H26.6562V4.3125H30.4687V2.4H38.0938V29.0625H30.4687ZM34.2812 21.45H32.3812V25.2625H34.2812V21.45Z" fill="#000001"/>
<path d="M28.5687 29.0625H26.6562V27.1625H28.5687V29.0625Z" fill="#000001"/>
<path d="M26.6578 30.9746H24.7578V29.0621H26.6578V30.9746Z" fill="#000001"/>
<path d="M26.6578 4.3125H24.7578V2.4H26.6578V4.3125Z" fill="#000001"/>
<path d="M24.7555 38.5869H22.8555V30.9744H24.7555V38.5869Z" fill="#000001"/>
<path d="M22.8555 40.5H19.043V38.5875H22.8555V40.5Z" fill="#000001"/>
<path d="M24.7566 2.39941H7.61914V0.499413H24.7566V2.39941Z" fill="#000001"/>
<path d="M20.943 27.1621H19.043V25.2621H20.943V27.1621Z" fill="#000001"/>
<path d="M19.0445 38.5869H17.1445V36.6869H19.0445V38.5869Z" fill="#000001"/>
<path d="M19.0445 29.0625H17.1445V27.1625H19.0445V29.0625Z" fill="#000001"/>
<path d="M17.143 36.6875H15.2305V29.0625H17.143V36.6875Z" fill="#000001"/>
<path d="M19.0445 25.2617H5.70703V23.3492H19.0445V25.2617Z" fill="#000001"/>
<path d="M13.3297 6.2123V8.1123H3.80469V4.3123H5.70469V6.2123H13.3297Z" fill="#000001"/>
<path d="M7.61953 4.3125H5.70703V2.4H7.61953V4.3125Z" fill="#000001"/>
<path d="M5.70469 23.3506H3.80469V21.4506H5.70469V23.3506Z" fill="#000001"/>
<path d="M11.4187 11.9242V13.8242H3.80625V17.6367H11.4187V19.5492H3.80625V21.4492H1.90625V8.11172H3.80625V11.9242H11.4187Z" fill="#000001"/>
</g>
<defs>
<clipPath id="clip0_1615_20787">
<rect width="40" height="40" fill="white" transform="matrix(1 0 0 -1 0 40.5)"/>
</clipPath>
</defs>
</svg>
