<svg width="33" height="33" viewBox="0 0 33 33" fill="none" xmlns="http://www.w3.org/2000/svg">
<path d="M30.9119 9.77525H29.3819V6.72525H27.8619V5.20525H26.3319V3.68525H23.2919V2.15525H20.2419V0.635254H12.6219V2.15525H9.57189V3.68525H6.52188V5.20525H5.00188V6.72525H3.48188V9.77525H1.95188V12.8253H0.431885V20.4453H1.95188V23.4953H3.48188V26.5353H5.00188V28.0653H6.52188V29.5853H9.57189V31.1153H12.6219V32.6353H20.2419V31.1153H23.2919V29.5853H26.3319V28.0653H27.8619V26.5353H29.3819V23.4953H30.9119V20.4453H32.4319V12.8253H30.9119V9.77525ZM26.3319 21.9653H24.8119V23.4953H23.2919V25.0153H18.7219V23.4953H20.2419V21.9653H21.7619V20.4453H20.2419V18.9253H14.1419V21.9653H12.6219V20.4453H11.1019V18.9253H9.57189V17.3953H8.05188V15.8753H6.52188V14.3453H8.05188V12.8253H9.57189V11.3053H11.1019V9.77525H12.6219V8.25525H14.1419V11.3053H23.2919V12.8253H24.8119V14.3453H26.3319V21.9653Z" fill="#000001"/>
</svg>
